<svg width="16" height="16" viewBox="0 0 16 16" fill="none" xmlns="http://www.w3.org/2000/svg">
<mask id="path-1-inside-1_10_23076" fill="white">
<path fill-rule="evenodd" clip-rule="evenodd" d="M0 0H16V4H0V0ZM0 6H16V10H0V6ZM16 12H0V16H16V12Z"/>
</mask>
<path d="M16 0H17V-1H16V0ZM0 0V-1H-1V0H0ZM16 4V5H17V4H16ZM0 4H-1V5H0V4ZM16 6H17V5H16V6ZM0 6V5H-1V6H0ZM16 10V11H17V10H16ZM0 10H-1V11H0V10ZM0 12V11H-1V12H0ZM16 12H17V11H16V12ZM0 16H-1V17H0V16ZM16 16V17H17V16H16ZM16 -1H0V1H16V-1ZM17 4V0H15V4H17ZM0 5H16V3H0V5ZM-1 0V4H1V0H-1ZM16 5H0V7H16V5ZM17 10V6H15V10H17ZM0 11H16V9H0V11ZM-1 6V10H1V6H-1ZM0 13H16V11H0V13ZM1 16V12H-1V16H1ZM16 15H0V17H16V15ZM15 12V16H17V12H15Z" fill="currentColor" mask="url(#path-1-inside-1_10_23076)"/>
</svg>
